<svg xmlns="http://www.w3.org/2000/svg" viewBox="0 0 900 280" role="img" aria-label="">
  <defs>
    <linearGradient id="branch" x1="0" y1="0" x2="1" y2="1">
      <stop offset="0" stop-color="#7e6940"/><stop offset="1" stop-color="#b1884c"/>
    </linearGradient>
    <radialGradient id="green" cx="35%" cy="28%" r="78%">
      <stop offset="0" stop-color="#a9ad7b"/><stop offset=".58" stop-color="#78805c"/><stop offset="1" stop-color="#596347"/>
    </radialGradient>
    <radialGradient id="gold" cx="34%" cy="28%" r="78%">
      <stop offset="0" stop-color="#dfc58b"/><stop offset=".6" stop-color="#b78942"/><stop offset="1" stop-color="#8c6330"/>
    </radialGradient>
    <linearGradient id="hive" x1="0" y1="0" x2="1" y2="1">
      <stop offset="0" stop-color="#e0bd72"/><stop offset=".48" stop-color="#b9893e"/><stop offset="1" stop-color="#80602f"/>
    </linearGradient>
    <filter id="watercolour" x="-15%" y="-20%" width="130%" height="140%">
      <feTurbulence baseFrequency=".018" numOctaves="2" seed="8" result="noise"/>
      <feDisplacementMap in="SourceGraphic" in2="noise" scale="2.2"/>
    </filter>
    <filter id="soft"><feGaussianBlur stdDeviation=".45"/></filter>
  </defs>

  <g fill="none" stroke="url(#branch)" stroke-linecap="round" opacity=".92">
    <path d="M438 205C330 198 246 177 166 140 108 114 59 111 23 124" stroke-width="5"/>
    <path d="M462 205C570 198 654 177 734 140 792 114 841 111 877 124" stroke-width="5"/>
    <path d="M176 143c-13-27-34-47-61-60M236 169c-7-32-23-60-48-82M300 187c0-31-11-59-30-85M363 199c5-27 2-50-10-69" stroke-width="3"/>
    <path d="M724 143c13-27 34-47 61-60M664 169c7-32 23-60 48-82M600 187c0-31 11-59 30-85M537 199c-5-27-2-50 10-69" stroke-width="3"/>
    <path d="M118 84c-22 2-38 11-52 28M190 88c-17-5-34-2-49 9M270 103c-20-6-37-4-51 7M353 130c-17-10-33-12-49-6" stroke-width="2.5"/>
    <path d="M782 84c22 2 38 11 52 28M710 88c17-5 34-2 49 9M630 103c20-6 37-4 51 7M547 130c17-10 33-12 49-6" stroke-width="2.5"/>
  </g>

  <g opacity=".96">
    <g fill="url(#green)">
      <ellipse cx="80" cy="109" rx="27" ry="14" transform="rotate(-25 80 109)"/><ellipse cx="129" cy="117" rx="29" ry="15" transform="rotate(25 129 117)"/>
      <ellipse cx="145" cy="75" rx="28" ry="15" transform="rotate(-38 145 75)"/><ellipse cx="199" cy="101" rx="28" ry="15" transform="rotate(30 199 101)"/>
      <ellipse cx="215" cy="153" rx="31" ry="16" transform="rotate(-9 215 153)"/><ellipse cx="260" cy="126" rx="31" ry="16" transform="rotate(-45 260 126)"/>
      <ellipse cx="296" cy="172" rx="28" ry="15" transform="rotate(18 296 172)"/><ellipse cx="326" cy="130" rx="25" ry="14" transform="rotate(-56 326 130)"/>
      <ellipse cx="365" cy="185" rx="26" ry="14" transform="rotate(14 365 185)"/>
      <ellipse cx="820" cy="109" rx="27" ry="14" transform="rotate(25 820 109)"/><ellipse cx="771" cy="117" rx="29" ry="15" transform="rotate(-25 771 117)"/>
      <ellipse cx="755" cy="75" rx="28" ry="15" transform="rotate(38 755 75)"/><ellipse cx="701" cy="101" rx="28" ry="15" transform="rotate(-30 701 101)"/>
      <ellipse cx="685" cy="153" rx="31" ry="16" transform="rotate(9 685 153)"/><ellipse cx="640" cy="126" rx="31" ry="16" transform="rotate(45 640 126)"/>
      <ellipse cx="604" cy="172" rx="28" ry="15" transform="rotate(-18 604 172)"/><ellipse cx="574" cy="130" rx="25" ry="14" transform="rotate(56 574 130)"/>
      <ellipse cx="535" cy="185" rx="26" ry="14" transform="rotate(-14 535 185)"/>
    </g>
    <g fill="url(#gold)">
      <ellipse cx="38" cy="120" rx="15" ry="9" transform="rotate(-17 38 120)"/><ellipse cx="104" cy="91" rx="17" ry="9" transform="rotate(22 104 91)"/>
      <ellipse cx="168" cy="134" rx="16" ry="9" transform="rotate(-23 168 134)"/><ellipse cx="228" cy="82" rx="17" ry="9" transform="rotate(48 228 82)"/>
      <ellipse cx="285" cy="113" rx="17" ry="9" transform="rotate(-20 285 113)"/><ellipse cx="338" cy="155" rx="15" ry="8" transform="rotate(35 338 155)"/>
      <ellipse cx="862" cy="120" rx="15" ry="9" transform="rotate(17 862 120)"/><ellipse cx="796" cy="91" rx="17" ry="9" transform="rotate(-22 796 91)"/>
      <ellipse cx="732" cy="134" rx="16" ry="9" transform="rotate(23 732 134)"/><ellipse cx="672" cy="82" rx="17" ry="9" transform="rotate(-48 672 82)"/>
      <ellipse cx="615" cy="113" rx="17" ry="9" transform="rotate(20 615 113)"/><ellipse cx="562" cy="155" rx="15" ry="8" transform="rotate(-35 562 155)"/>
    </g>
  </g>

  <g>
    <path d="M394 191c4-60 18-112 56-139 38 27 52 79 56 139Z" fill="url(#hive)" stroke="#75552d" stroke-width="3"/>
    <path d="M411 93c26 11 52 11 78 0M403 119c31 13 63 13 94 0M398 147c35 13 69 13 104 0M396 175c36 12 72 12 108 0" fill="none" stroke="#7e5c2f" stroke-width="5" stroke-linecap="round" opacity=".75"/>
    <ellipse cx="450" cy="178" rx="15" ry="12" fill="#554027"/>
    <path d="M441 45c2-17 13-25 23-16 12 11-3 23-14 24" fill="none" stroke="#8b6834" stroke-width="3" stroke-linecap="round"/>
  </g>

  <g fill="#9b6d2d" opacity=".78">
    <circle cx="24" cy="125" r="3"/><circle cx="877" cy="124" r="3"/><circle cx="116" cy="82" r="3"/><circle cx="784" cy="82" r="3"/>
  </g>
</svg>
